<svg width="512" height="691" viewBox="0 0 512 691" fill="none" xmlns="http://www.w3.org/2000/svg">
<path fill-rule="evenodd" clip-rule="evenodd" d="M101.257 610.066C160.14 619.011 220.09 619.461 279.461 616.213C302.958 614.453 326.527 614.136 350.005 616.386C363.879 617.417 424.706 622.067 429.676 609.641C426.548 543.468 420.213 476.732 400.779 413.091C392.786 390.494 385.922 371.738 370.323 353.038C365.406 347.933 354.804 337.224 348.729 333.732C343.466 330.707 341.266 331.786 338.244 326.677C335.241 321.032 333.026 311.605 328.761 307.622C324.42 303.567 317.985 305.017 310.01 306.324C311.475 286.522 302.336 281.479 289.745 277.713C267.613 269.266 245.756 273.509 240.186 300.454C229.857 300.454 224.056 304.899 217.784 309.17C215.22 310.916 217.003 315.364 213.941 316.737C208.275 318.754 198.262 318.26 192.806 320.743C167.998 332.034 145.902 348.408 131.391 372.321C98.8592 423.376 76.5123 530.923 80.3793 591.434C78.685 594.092 81.0279 597.902 81.6234 600.759C82.3752 603.245 84.8094 604.898 87.3499 604.615C90.8951 608.428 96.3785 609.277 101.257 610.066Z" fill="white"/>
<path fill-rule="evenodd" clip-rule="evenodd" d="M344.98 332.235C344.618 332.034 344.937 331.517 345.3 331.688C362.762 339.881 376.159 354.255 385.585 370.863C395.345 388.059 400.908 407.584 405.704 426.667L405.877 427.357C410.991 447.771 415.34 468.397 419.255 489.073C423.219 510.01 426.402 531.078 428.962 552.233C430.228 562.692 431.357 573.171 432.238 583.67C432.678 588.917 433.078 594.167 433.437 599.42C433.58 601.521 433.716 603.622 433.832 605.725L433.915 607.302C433.986 608.733 434.156 610.167 433.803 611.578C433.498 612.795 432.854 613.897 432.287 615.014C431.167 617.221 428.095 616.858 426.888 615.014L426.537 614.477C425.736 613.239 425.071 612.089 424.82 610.549C424.577 609.057 424.568 607.494 424.459 605.988C424.258 603.216 424.088 600.442 423.893 597.669C423.484 591.833 423.025 586 422.516 580.172C421.511 568.666 420.432 557.171 419.108 545.696C416.754 525.304 413.801 504.967 410.319 484.737C406.917 464.975 402.617 445.414 398.13 425.877L397.665 423.856C389.81 389.746 377.703 350.464 344.98 332.235ZM158.98 465.802C159.108 465.461 159.661 465.383 159.754 465.802C160.931 471.099 161.047 476.555 161.227 481.978C161.404 487.327 161.397 492.701 161.319 498.054C161.031 517.726 160.491 537.381 160.024 557.05C159.791 566.889 159.572 576.728 159.404 586.568C159.34 590.259 159.287 593.949 159.242 597.64L159.188 602.508C159.161 604.66 159.104 606.785 158.842 608.935C158.669 610.349 158.3 611.698 157.52 612.91C156.966 613.771 156.176 614.207 155.407 614.792L155.263 614.903C154.281 615.679 153.247 615.685 152.275 614.903L151.993 614.68C151.064 613.954 150.261 613.386 149.668 612.238C148.844 610.641 148.712 608.906 148.571 607.146C148.359 604.478 148.5 601.77 148.527 599.094C148.582 593.725 148.657 588.358 148.751 582.99C149.097 563.305 149.78 543.617 151.025 523.967C151.612 514.712 152.407 505.426 153.474 496.208L153.677 494.481C154.001 491.768 154.296 489.008 154.629 486.239C149.663 482.746 145.299 478.508 141.577 473.7C141.303 473.346 141.754 472.85 142.085 473.193C145.888 477.131 150.249 480.27 155.076 482.739C155.867 476.942 156.955 471.176 158.98 465.802ZM241.933 290.332C242.001 290.279 242.108 290.256 242.173 290.332C243.24 291.576 243.023 293.479 243.058 295.056L243.062 295.203C243.138 297.508 243.153 299.807 243.145 302.113L243.121 309.457C243.118 310.466 243.036 311.517 243.088 312.533L243.115 312.926C243.676 313.5 243.936 314.33 243.746 315.164C243.712 316.233 243.153 317.125 242.337 317.686L244.085 320.165L245.834 322.643C249.439 327.757 253.084 332.825 256.883 337.798C260.756 342.868 264.888 347.748 269.212 352.439C271.325 354.732 273.473 356.992 275.672 359.202C276.565 360.101 277.481 360.976 278.386 361.862L279.287 362.752C279.819 363.285 280.489 363.811 280.842 364.486C281.05 364.884 281.098 365.865 281.172 366.027C281.839 367.493 280.701 369.831 278.81 369.1L278.896 369.043C279.24 368.803 279.019 368.8 278.233 369.033C277.738 369.031 277.273 368.917 276.838 368.691L276.709 368.62C276.098 368.309 275.552 367.707 275.055 367.226L274.931 367.109C273.795 366.044 272.712 364.915 271.623 363.802C269.35 361.48 267.129 359.109 264.978 356.674C260.687 351.816 256.62 346.761 252.768 341.549C248.844 336.24 245.197 330.659 242.06 324.849C240.87 322.644 239.779 320.396 238.733 318.123C236.696 317.469 236.224 315.303 236.366 312.863C235.614 311.114 234.937 309.328 234.537 307.503C234.483 307.253 234.804 307.017 234.996 307.236C235.648 307.976 236.251 308.764 236.83 309.572C237.18 307.861 237.623 306.287 237.831 305.283L238.734 300.853C233.647 300.588 228.072 302.678 224.565 306.337C224.377 307.29 223.644 307.972 222.929 308.863C222.112 309.881 221.4 311.024 220.868 312.219C219.69 314.867 220.355 318.77 218.067 320.714C217.829 320.916 217.563 321.057 217.288 321.144C218.373 326.466 217.881 332.331 217.857 337.73L217.856 338.205C217.862 344.249 217.66 350.297 217.426 356.335L217.189 362.311C216.881 370.281 216.681 378.255 217.455 386.182C220.991 383.05 224.647 380.061 228.429 377.213C230.916 375.341 233.452 373.535 236.035 371.796L238.133 370.394C240.648 368.708 243.224 366.972 245.977 365.765C249.578 364.186 253.002 364.729 256.479 366.348C259.942 367.961 263.301 369.835 266.697 371.584C270.151 373.361 273.612 375.124 277.071 376.892C279.363 378.063 282.721 379.12 284.401 381.275C284.508 380.798 284.633 380.323 284.779 379.849C284.613 379.126 284.677 378.346 285.082 377.601C290.73 367.224 295.955 356.598 301.143 345.986C303.769 340.615 306.266 335.181 308.897 329.813L311.455 324.586C311.883 323.715 312.311 322.845 312.742 321.976C313.388 320.675 314.06 319.387 314.712 318.089C314.988 317.541 315.334 316.996 315.603 316.443L315.73 316.165C315.736 316.151 316.356 314.202 315.877 314.387L315.836 314.407C315.591 314.546 315.396 314.238 315.554 314.042C316.231 313.205 317.174 313.947 317.56 314.721C318.624 316.854 316.674 320.201 315.924 322.243L315.883 322.357C313.555 328.947 310.919 335.413 308.219 341.856C303.041 354.21 297.478 366.374 291.928 378.559L291.862 378.768C293.045 377.861 294.309 377.038 295.391 376.236C298.121 374.214 300.931 372.291 303.736 370.374C308.88 366.859 314.164 363.576 319.535 360.422L320.611 359.793C323.294 358.23 325.952 356.963 329.136 357.432C332.095 357.868 334.846 359.457 337.519 360.748L337.795 360.881L346.054 364.808C345.171 361.287 344.215 357.782 343.218 354.291C341.272 347.482 339.132 340.73 336.811 334.038C334.643 327.785 332.299 321.602 329.821 315.466L329.074 313.625C328.064 311.099 327.059 308.345 324.17 307.567C321.283 306.79 317.972 307.943 315.334 306.297C315.094 306.147 315.123 305.752 315.414 305.679L317.042 305.269C320.099 304.508 323.683 303.743 326.573 304.483C329.719 305.289 332.321 307.929 333.847 310.673C335.544 313.726 336.74 317.143 338.028 320.399L338.232 320.912C339.71 324.596 341.131 328.302 342.492 332.032C345.211 339.488 347.687 347.033 349.928 354.646C351.008 358.315 352.032 362.002 353.017 365.698C353.3 366.76 353.767 368.049 354.15 369.393C354.589 369.822 355.005 370.299 355.394 370.844C356.041 371.748 355.577 372.809 354.773 373.35C354.742 374.275 354.536 375.145 354.045 375.89C352.127 378.802 347.057 378.052 347.263 374.138C347.294 373.539 347.528 372.967 347.881 372.484L347.871 372.405L347.831 372.262C346.951 371.84 346.067 371.37 345.135 370.91L336.467 366.626C333.957 365.385 331.174 363.468 328.383 362.995C325.78 362.555 323.034 364.494 320.798 365.664L320.653 365.739C315.247 368.51 309.88 371.373 304.536 374.26C301.926 375.67 299.351 377.138 296.752 378.564C294.579 379.757 292.233 381.468 289.79 382.141C288.747 382.953 287.507 382.844 286.511 382.231C286.967 385.05 286.939 387.943 287.078 390.826C287.266 394.68 287.295 398.544 287.357 402.403L287.382 403.85C287.546 412.38 287.634 420.914 287.667 429.446C287.782 459.83 287.446 490.224 287.368 520.608C287.328 535.874 287.026 551.153 286.629 566.413C286.461 572.879 286.109 579.338 285.73 585.794L285.521 589.316C285.079 596.747 284.818 604.259 283.442 611.59C283.263 612.546 281.645 612.57 281.486 611.59C280.22 603.735 280.15 595.708 279.906 587.761L279.855 586.173C279.562 577.64 279.424 569.113 279.453 560.575C279.562 530.179 280.352 499.802 280.998 469.414C281.323 454.146 281.542 438.871 282.046 423.609C282.299 415.972 282.584 408.339 282.923 400.706C283.075 397.297 283.22 393.892 283.447 390.489L283.549 389.03C283.619 388.079 283.676 387.139 283.745 386.208C280.67 387.331 277.857 385.251 275.091 383.828C271.903 382.188 268.716 380.545 265.526 378.908L262.334 377.273L255.946 374.014C253.069 372.545 250.853 371.085 247.785 372.806C236.733 379.008 226.576 387.259 217.372 395.918C215.607 397.578 211.877 397.132 211.43 394.349C209.52 382.46 210.682 370.399 211.657 358.475L212.016 354.047C212.452 348.76 212.926 343.472 213.558 338.205C213.841 335.85 214.122 333.495 214.434 331.144L214.674 329.381C215.063 326.594 215.317 323.824 216.147 321.151C215.886 321.066 215.634 320.927 215.408 320.714C212.912 318.345 214.116 314.236 215.255 311.419C216.379 308.638 218.094 306.211 220.242 304.122C220.71 303.666 221.37 303.373 222.034 303.358C227.241 299.907 232.953 298.186 238.898 300.069C239.065 299.27 239.235 298.473 239.415 297.678L239.597 296.883C240.06 294.91 240.231 291.652 241.933 290.332ZM295.299 601.899C296.915 601.454 298.684 601.923 299.868 603.107C301.051 604.291 301.52 606.06 301.075 607.676C300.852 608.471 300.45 609.162 299.868 609.748C299.324 610.288 298.689 610.674 297.964 610.905L297.796 610.956L297.531 611.066C296.722 611.283 295.911 611.283 295.102 611.066C294.327 610.848 293.655 610.457 293.085 609.891C292.518 609.32 292.127 608.648 291.909 607.873C291.692 607.063 291.692 606.253 291.909 605.443L292.02 605.179C292.242 604.383 292.645 603.692 293.227 603.107C293.813 602.525 294.504 602.122 295.299 601.899ZM391.24 440.873C391.506 440.569 391.936 440.959 391.771 441.283C389.254 446.217 386.449 451.117 383.692 455.926C383.913 457.259 384.132 458.581 384.384 459.869C385.458 465.362 386.774 470.756 387.631 476.301C390.714 496.233 392.315 516.381 393.688 536.491C395.065 556.674 395.242 576.866 395.448 597.088C395.467 598.841 394.118 600.878 392.312 601.208C391.485 601.359 390.866 601.33 390.041 601.208C388.161 600.932 386.985 598.778 386.905 597.088C386.365 585.786 385.64 574.499 384.8 563.214C383.311 543.208 382.401 523.15 381.198 503.123L380.774 496.123C380.32 488.539 379.904 480.95 379.768 473.354C379.678 468.322 379.947 463.291 379.782 458.265C379.629 453.624 379.159 448.578 380.182 444.019C380.22 443.848 380.49 443.805 380.568 443.969C381.631 446.208 382.305 448.642 382.824 451.127C385.565 447.659 388.357 444.185 391.24 440.873ZM211.681 318.294C212.066 318.265 212.051 318.844 211.681 318.886C206.302 319.51 201.105 321.7 196.025 323.561L195.59 323.719C190.458 325.581 185.455 327.747 180.64 330.328C171.226 335.374 162.582 341.881 154.939 349.33C124.424 379.067 110.518 421.949 100.328 462.247C94.6658 484.636 90.6396 507.404 88.0301 530.346C86.7397 541.693 85.8275 553.082 85.2956 564.489C85.0234 570.335 84.8517 576.187 84.78 582.039C84.7431 585.037 84.7323 588.035 84.7359 591.033C84.7377 592.406 84.9829 594.136 84.6155 595.47C84.2748 596.705 83.3139 597.793 82.6031 598.823C81.7608 600.044 80.2469 599.98 79.3928 598.823L79.0778 598.402C78.1669 597.193 77.2757 596.038 77.1456 594.459C77.0063 592.766 77.1045 591.02 77.0982 589.32C77.0838 585.894 77.1262 582.467 77.1947 579.042C77.3267 572.476 77.5854 565.913 77.9699 559.357C78.7505 546.054 80.0355 532.777 81.8753 519.577C85.1456 496.116 90.0474 472.878 96.4682 450.078C102.526 428.568 109.702 407.122 119.925 387.198C129.416 368.7 141.868 351.49 158.299 338.562C165.94 332.55 174.258 327.539 183.226 323.766C187.748 321.863 192.498 320.309 197.328 319.424C202.105 318.548 206.861 318.67 211.681 318.294ZM296.225 563.88C297.078 563.873 298.03 564.061 298.762 564.533L299.74 565.289C300.005 565.629 300.268 565.971 300.531 566.313C301.143 567.11 301.224 568.4 301.096 569.349C301.068 569.984 300.879 570.573 300.531 571.12L299.787 572.084C299.071 572.668 298.474 573.084 297.608 573.365C297.154 573.512 296.718 573.542 296.283 573.52L296.138 573.511L296.225 573.522L296.073 573.505C295.931 573.493 295.789 573.478 295.647 573.458C295.55 573.446 295.453 573.439 295.356 573.426C295.262 573.418 295.172 573.414 295.078 573.423C293.977 573.527 292.869 572.902 292.087 572.184C291.383 571.537 290.75 570.166 290.849 569.193L290.891 568.787C290.965 568.102 291.026 567.832 291.316 567.143C291.598 566.474 291.993 565.883 292.529 565.383C293.557 564.427 294.815 563.89 296.225 563.88ZM292.815 513.719C294.277 512.125 296.788 512.008 298.602 512.972C299.043 513.207 299.449 513.584 299.838 513.899C300.819 514.692 301.205 516.123 301.259 517.329C301.313 518.521 300.684 519.937 299.838 520.76L299.633 520.959C299.128 521.45 298.404 521.878 297.697 522.008C296.558 522.217 295.6 522.211 294.539 521.763C293.627 521.378 292.841 520.759 292.306 519.92L292.22 519.778C292.183 519.719 292.148 519.659 292.116 519.598L292.069 519.505C291.053 517.552 291.326 515.34 292.815 513.719ZM293.573 463.293C294.232 463.087 294.891 463.057 295.55 463.205C295.998 463.206 296.415 463.319 296.802 463.543C297.222 463.661 297.587 463.874 297.896 464.181C298.269 464.401 298.566 464.698 298.786 465.071C299.225 465.55 299.52 466.112 299.674 466.757L299.851 468.076L299.674 469.395L299.174 470.58C299.036 470.759 298.898 470.939 298.758 471.117C298.537 471.491 298.24 471.789 297.866 472.01C297.623 472.251 297.345 472.432 297.033 472.557C295.929 473.349 294.458 473.607 293.15 473.246C292.373 473.029 291.698 472.636 291.126 472.067C290.558 471.495 290.164 470.82 289.947 470.043L289.857 469.423C289.742 468.591 289.723 468.13 289.959 467.073C290.062 466.607 290.362 465.952 290.519 465.675C291.189 464.496 292.285 463.688 293.573 463.293ZM350.827 427.016C352.72 427.003 354.613 427.007 356.507 427.027L357.926 427.046C360.304 427.084 362.34 426.839 364.209 428.488C365.566 429.686 364.968 431.694 363.68 432.596C361.729 433.962 359.282 433.275 357.039 433.124C354.674 432.966 352.307 432.834 349.939 432.728C345.354 432.523 340.767 432.392 336.178 432.372C331.598 432.352 327.012 432.395 322.432 432.469C317.773 432.545 312.922 432.979 308.288 432.497C307.652 432.431 307.509 431.594 308.137 431.376C312.503 429.865 317.414 429.376 321.99 428.798C326.709 428.202 331.429 427.78 336.178 427.507C341.056 427.227 345.941 427.05 350.827 427.016ZM293.564 412.18L293.72 412.183C294.554 412.185 295.334 412.381 296.061 412.771L296.216 412.858L297.216 413.631C297.829 414.248 298.253 414.975 298.487 415.813L298.664 417.127C298.69 417.808 298.548 418.442 298.239 419.032C298.039 419.645 297.698 420.175 297.216 420.623C296.768 421.105 296.238 421.446 295.625 421.645C295.081 421.931 294.499 422.074 293.877 422.074L293.72 422.071C292.828 422.068 291.996 421.843 291.226 421.396L290.225 420.623C289.612 420.006 289.188 419.279 288.954 418.441L288.777 417.127C288.751 416.446 288.893 415.811 289.203 415.222C289.402 414.609 289.743 414.079 290.225 413.631C290.673 413.149 291.203 412.808 291.816 412.609C292.36 412.323 292.942 412.18 293.564 412.18ZM308.22 296.035C309.285 294.492 311.216 295.864 310.94 297.105C311.013 300.589 311.191 303.97 311.983 307.382C312.346 308.945 312.822 310.509 313.555 311.94L313.863 312.543C314.812 314.418 315.549 316.187 314.271 318.244C313.668 319.214 312.579 319.943 311.399 319.892C306.164 319.666 305.445 312.378 305.126 308.31C304.798 304.121 305.819 299.516 308.22 296.035Z" fill="black"/>
<path fill-rule="evenodd" clip-rule="evenodd" d="M350.436 218.164C349.466 209.638 350.721 191.818 350.805 190.735C351.337 183.89 348.131 156.862 342.069 159.352C331.9 151.301 318.356 149.524 305.691 148.674C279.384 146.91 251.399 150.96 231.086 168.666C221.04 177.861 211.26 191.234 212.046 205.158C202.919 218.357 190.052 236.463 201.424 251.893C205.289 256.823 211.433 258.659 216.289 262.392C226.057 270.272 232.185 281.579 242.045 289.411C268.168 312.888 312.525 317.792 338.191 291.089C358.037 271.75 354.828 242.819 351.337 218.164C348.99 201.589 352.329 234.798 350.436 218.164Z" fill="white"/>
<path fill-rule="evenodd" clip-rule="evenodd" d="M270.549 112.519C277.584 111.099 284.808 110.215 291.993 110.481L292.547 110.503C297.953 110.719 304.799 111.197 309.515 114.341C309.786 114.068 310.222 113.929 310.618 114.117C316.222 116.793 322.386 118.727 328.286 120.649C334.16 122.561 340.254 123.824 346.41 124.333C348.726 124.524 350.708 127.026 349.242 129.269C348.893 129.804 348.553 130.344 348.214 130.885C348.78 130.826 349.347 130.765 349.913 130.708C351.775 130.52 353.636 132.508 353.526 134.322C353.457 135.463 353.334 136.59 353.152 137.704C353.861 137.689 354.567 137.796 355.248 138.084C358.699 139.541 358.458 143.651 358.2 146.779C357.842 151.119 356.219 155.715 353.206 158.963C355.456 161.301 357.049 164.092 357.999 167.406C358.688 169.827 359.071 172.405 358.882 174.925L358.822 175.679C358.588 178.414 358.122 181.441 356.155 183.408C355.146 184.422 353.902 184.792 352.716 184.675C353.433 190.976 353.893 197.314 354.325 203.629L354.528 206.647C355.494 221.242 356.219 235.933 356.029 250.552C355.853 264.214 353.154 277.475 344.775 288.568C337.144 298.669 326.188 306.116 313.794 308.947C307.114 310.475 300.295 310.583 293.535 309.609C290.257 309.136 286.959 308.41 283.848 307.265C280.405 305.994 277.931 304.123 275.615 301.32C274.519 299.99 275.046 297.159 277.228 297.425C280.528 297.825 283.54 298.308 286.704 299.284L287.157 299.427C290.307 300.436 293.571 301.189 296.865 301.509C303.612 302.163 310.463 301.505 316.926 299.458C327.45 296.123 336.514 288.69 342.323 279.35C349.219 268.28 349.999 255.713 349.899 242.984C349.792 229.016 349.338 215.04 348.597 201.086L348.47 198.761C348.078 191.58 347.7 184.395 347.367 177.21C347.263 174.957 347.105 172.685 346.821 170.436C344.221 168.912 341.891 166.811 340.372 164.22C337.32 165.482 334.111 166.392 331.159 167.118C324.32 168.8 317.219 169.209 310.258 168.155C308.381 168.931 306.466 169.613 304.521 170.2C303.996 170.433 303.47 170.662 302.945 170.886C298.257 172.892 293.502 174.591 288.554 175.835L287.339 176.139C284.734 176.781 281.906 177.413 279.134 177.611C278.679 177.787 278.188 177.936 277.651 178.067C275.128 178.68 272.509 178.874 269.922 178.657C267.402 178.445 265.581 175.899 266.97 173.514C267.984 171.774 269.007 170.039 270.039 168.308C266.447 169.804 262.738 171.049 258.997 172.103C255.22 173.167 251.389 174.064 247.553 174.889C245.503 175.326 243.443 175.714 241.397 176.151C239.932 176.462 237.683 176.624 236.488 177.589C235.168 178.648 234.794 181.118 234.293 182.642C233.635 184.621 233.018 186.608 232.455 188.619C231.333 192.63 230.413 196.701 229.701 200.812C228.989 204.927 228.511 209.083 228.245 213.252C227.98 217.417 228.096 221.609 227.669 225.756C227.438 227.956 225.077 229.087 223.333 227.55C223.128 227.37 222.922 227.187 222.718 227.003L222.413 226.725C220.921 225.373 219.474 223.94 218.28 222.326C218.064 222.028 217.857 221.717 217.663 221.402C217.631 221.402 217.604 221.393 217.573 221.37L217.242 221.121C213.597 218.408 207.507 214.87 203.953 219.378C202.82 220.814 202.24 222.643 201.759 224.407L200.914 227.564C200.368 229.625 199.854 231.698 199.553 233.806C198.873 238.53 199.215 243.975 202.465 247.762C203.763 249.276 205.553 250.358 207.549 250.642C208.662 250.795 209.762 250.606 210.866 250.466C211.989 250.326 213.07 250.552 214.193 250.444C215.977 250.268 216.757 252.404 216.09 253.748C215.729 254.469 215.305 255.091 214.824 255.618C215.211 255.952 215.581 256.312 215.937 256.691C216.991 257.029 217.937 257.755 218.645 258.715C219.218 259.49 219.515 260.333 219.565 261.221C219.628 261.442 219.682 261.667 219.732 261.897L220.699 263.467C220.911 263.811 221.123 264.151 221.336 264.485C223.797 268.361 226.528 271.642 229.922 274.735C233.19 277.71 236.736 280.373 239.806 283.565L240.168 283.944C243.029 286.96 246.046 290.61 244.926 294.996C244.638 296.123 243.064 296.934 242.037 296.172C238.733 293.72 237.07 289.835 234.267 286.86C231.382 283.795 228.186 281.041 225.293 277.984C222.557 275.1 220.398 271.832 218.772 268.235C218.122 268.951 217.176 269.461 215.865 269.659C213.611 269.997 211.51 268.676 210.528 266.725C209.897 267.004 209.253 267.257 208.603 267.455C205.187 268.501 203.038 264.701 204.327 261.893C205.016 260.387 205.877 259.08 206.945 257.98C203.605 257.52 200.207 255.794 198.012 253.639C192.505 248.226 191.747 240.09 192.987 232.855C193.645 229.02 194.78 225.139 196.255 221.537C196.511 220.91 196.786 220.279 197.088 219.657C196.921 219.653 196.75 219.581 196.642 219.441C195.646 218.08 194.434 216.966 193.694 215.443C193.013 214.046 192.257 212.63 191.72 211.174C190.616 208.195 190.075 204.832 189.715 201.681C188.971 195.231 189.259 188.822 190.247 182.412C191.927 171.495 195.987 161.047 201.969 151.88C201.643 151.709 201.331 151.502 201.04 151.258L200.896 151.133L200.663 150.922C198.956 149.377 199.103 146.482 200.663 144.917L201.155 144.423C201.779 143.804 202.317 143.313 203.324 142.638C203.473 142.539 203.625 142.445 203.779 142.357C203.251 141.383 203.068 140.243 203.436 138.986C204.716 134.607 211.016 134.762 215.01 136.672C219.428 132.728 224.328 129.305 229.638 126.532C242.285 119.933 256.585 115.331 270.549 112.519ZM205.174 227.866C207.536 227.095 210.673 228.713 212.796 229.687C215.486 230.922 217.776 232.747 219.993 234.676C221.098 235.641 221.295 237.219 221.021 238.566C220.993 238.702 220.967 238.841 220.935 238.981C220.642 240.419 219.037 241.55 217.618 241.51C214.648 241.429 213.233 238.864 211.551 236.691C211.353 237.043 211.105 237.367 210.799 237.611L210.591 237.773C209.894 238.304 209.124 238.729 208.203 238.688C207.549 238.657 206.923 238.49 206.346 238.188C204.903 237.426 204.268 235.56 204.66 234.041C204.903 233.085 205.462 232.337 206.192 231.819L205.92 231.632C205.338 231.227 204.807 230.8 204.393 230.169L204.299 230.02H204.335C203.885 229.245 204.178 228.19 205.174 227.866Z" fill="black"/>
<path fill-rule="evenodd" clip-rule="evenodd" d="M316.413 273.226C313.093 274.188 309.529 274.274 306.145 273.281C303.075 272.38 299.923 270.397 297.664 267.774C295.657 265.443 294.357 262.611 294.408 259.587C294.414 259.242 294.538 258.954 294.728 258.73C294.932 258.489 295.218 258.324 295.523 258.252C295.838 258.178 296.171 258.205 296.454 258.333C296.71 258.45 296.93 258.648 297.067 258.937C297.414 259.393 297.76 259.842 298.107 260.279C300.899 263.727 303.602 266.303 307.8 267.227C310.078 267.728 312.353 267.506 314.44 266.741C316.674 265.922 318.694 264.482 320.276 262.639C320.992 261.806 321.836 261.466 322.662 261.461C323.597 261.454 324.522 261.889 325.219 262.584C325.904 263.267 326.362 264.196 326.404 265.167C326.44 266.019 326.162 266.909 325.423 267.704C322.987 270.32 319.829 272.237 316.413 273.226ZM316.311 230.048C319.714 232.117 324.9 236.941 321.239 242.071C316.929 246.593 310.724 241.408 307.666 239.063C304.831 237.245 301.646 241.92 304.276 244.042C326.371 260.402 335.338 230.589 318.032 227.615C316.127 227.288 315.419 229.408 316.311 230.048ZM284.474 220.944C283.38 220.245 282.093 220.004 280.667 220.653C279.552 221.16 277.598 222.85 276.237 225.071C275.307 226.591 274.647 228.373 274.784 230.23C274.816 230.661 274.657 230.979 274.406 231.214C274.207 231.4 273.92 231.536 273.584 231.579C273.298 231.615 272.978 231.583 272.718 231.501C272.223 231.347 271.961 231.026 271.862 230.764C270.91 228.234 271.32 225.411 272.387 222.864C273.828 219.427 276.444 216.548 278.158 215.62C281.091 214.031 284.551 213.958 287.488 215.577C289.989 216.954 291.552 219.179 293.107 221.446C293.437 221.928 293.765 222.406 294.105 222.876C294.784 223.818 294.852 224.752 294.589 225.553C294.297 226.441 293.554 227.19 292.624 227.581C291.765 227.944 290.768 227.995 289.886 227.622C289.14 227.308 288.456 226.695 288.023 225.655C287.295 223.904 286.08 221.972 284.474 220.944ZM340.03 224.841C339.28 225.231 338.694 225.349 337.863 225.1C337.404 224.962 336.949 224.697 336.594 224.341C336.241 223.989 335.987 223.551 335.888 223.064C335.645 221.864 334.989 220.741 334.053 220.009C333.253 219.383 332.244 219.051 331.125 219.238C329.916 219.44 328.766 220.215 327.973 221.128C327.708 221.434 327.5 221.781 327.291 222.126C326.901 222.771 326.521 223.37 325.982 223.844C325.778 224.024 325.471 224.149 325.173 224.149C325.051 224.149 324.929 224.129 324.811 224.093C323.609 222.886 323.378 221.97 323.416 221.062C323.457 220.11 323.833 219.145 324.439 218.246C325.862 216.135 328.564 214.405 330.388 214.013C332.885 213.476 335.365 214.121 337.353 215.516C339.399 216.951 340.915 219.179 341.388 221.69C341.501 222.295 341.453 222.948 341.223 223.514C340.998 224.067 340.606 224.541 340.03 224.841ZM289.981 198.444C288.482 199.904 286.708 200.13 284.914 200.331C283.917 200.444 283.121 200.535 282.338 200.712C280.185 201.198 278.057 201.93 276.116 202.984C274.087 204.086 271.875 205.415 270.284 207.118C269.906 207.523 269.549 207.948 269.192 208.374C268.866 208.762 268.552 209.136 268.222 209.497C267.842 209.911 267.482 210.345 267.123 210.778C266.901 211.144 266.857 211.234 266.813 211.327C266.746 211.468 266.667 211.625 266.578 211.794C266.456 212.025 266.313 212.278 266.163 212.507C265.913 212.926 265.779 213.042 265.663 213.094C265.471 213.179 265.289 213.221 265.113 213.198C264.947 213.177 264.791 213.097 264.637 212.967C263.867 212.317 263.64 211.25 263.664 210.118C263.699 208.399 264.333 206.496 264.917 205.327C266.276 202.609 268.16 199.783 270.425 197.755C273.011 195.439 275.839 193.686 279.088 192.478C281.107 191.728 283.444 191.038 285.644 191.125C287.227 191.188 288.738 191.659 289.986 192.834C290.753 193.556 291.121 194.582 291.121 195.607C291.121 196.653 290.738 197.706 289.981 198.444ZM343.077 211.815C342.982 211.972 342.85 212.079 342.704 212.144C342.55 212.212 342.378 212.231 342.213 212.203C342.049 212.176 341.893 212.101 341.769 211.988C341.651 211.879 341.56 211.734 341.52 211.557C340.525 207.187 338.593 203.935 334.47 201.839C332.441 200.807 330.109 200.152 327.901 199.629C327.259 199.477 326.581 199.379 325.898 199.279C323.758 198.967 321.603 198.609 320.208 196.879C319.368 195.837 319.015 194.504 319.214 193.286C319.402 192.138 320.073 191.086 321.291 190.455C324.326 188.886 328.097 190.426 331.161 191.738C331.388 191.835 331.611 191.93 331.829 192.022C334.826 193.287 337.559 194.957 339.806 197.345C341.588 199.24 343.24 202.04 343.905 204.921C344.458 207.318 344.328 209.765 343.077 211.815Z" fill="black"/>
<path fill-rule="evenodd" clip-rule="evenodd" d="M276.158 276.397C279.807 267.847 287.771 261.564 296.941 259.266C303.674 257.584 310.741 257.637 317.605 258.305C321.201 258.653 325.059 258.937 328.448 260.273C331.342 261.414 333.701 263.571 335.474 266.103C337.585 269.103 339.021 272.537 340.029 276.057C340.172 276.557 340.307 277.061 340.433 277.568C339.994 280.223 339.063 282.484 336.604 284.153C334.204 285.784 331.34 286.45 328.486 286.687C328.206 286.553 327.935 286.415 327.687 286.273C323.239 283.726 320.108 277.708 314.493 278.522C309.483 279.25 306.184 285.555 303.205 289.252C293.64 290.367 284.082 287.492 276.3 282.023C275.905 280.15 275.882 278.262 276.158 276.397ZM346.933 269.911C346.168 267.764 345.204 265.684 344.062 263.725C340.286 257.245 334.488 252.083 327.606 249.132C311.326 242.16 290.261 247.075 277.113 258.508C272.622 262.417 268.081 268.161 266.708 274.339C266.298 274.42 265.911 274.634 265.592 274.934C256.093 268.953 246.311 263.198 238.656 254.908C233.097 248.884 229.231 241.755 226.863 233.921C226.67 233.276 225.63 233.37 225.662 234.084C225.671 234.251 225.68 234.417 225.689 234.584C225.59 234.277 225.121 234.435 225.085 234.733C223.812 244.249 222.218 254.339 223.686 263.905C224.563 269.613 227.156 273.792 230.622 278.304C234.335 283.141 238.539 287.64 242.838 291.954C245.565 294.693 248.414 297.851 251.754 299.859C255.639 302.192 260.045 303.966 264.191 305.766C268.408 307.602 272.689 309.299 277.05 310.77C285.769 313.721 294.78 315.761 303.949 316.654C311.29 317.367 319.68 318.144 326.715 315.382C332.107 313.265 336.46 309.439 339.912 304.836C343.67 299.823 346.642 294.113 348.284 288.091C349.991 281.836 347.293 270.92 346.933 269.911Z" fill="black"/>
<path fill-rule="evenodd" clip-rule="evenodd" d="M354.314 234.083C351.279 238.16 345.653 239.458 340.464 239.01C329.273 237.933 325.751 225.221 325.384 215.341C332.888 217.452 324.749 202.499 350.403 200.855C359.446 200.101 356.953 205.563 360.948 209.554C360.866 217.93 359.472 227.031 354.314 234.083ZM301.008 224.458C294.401 255.404 258.219 248.043 254.419 220.148C257.928 217.67 257.004 211.553 261.364 209.337C268.274 204.921 276.912 205.11 284.76 205.214C294.79 205.903 297.648 210.059 302.801 214.592C302.553 217.62 301.838 221.209 301.008 224.458ZM368.646 195.73C368.275 195.668 367.904 195.61 367.533 195.555C367.243 195.391 366.903 195.264 366.507 195.188C365.603 194.959 364.706 194.804 363.81 194.721C350.95 191.826 321.201 195.936 319.973 206.911C315.878 208.278 312.335 207.054 307.588 207.175C303.975 192.073 241.515 194.204 238.511 203.31C238.5 203.306 238.489 203.304 238.477 203.3C235.591 202.407 231.336 202.622 228.032 202.481C220.978 202.333 213.916 202.962 207.014 204.45C194.09 206.504 176.452 208.908 185.441 225.049C185.442 225.052 185.444 225.055 185.446 225.057L185.447 225.056C186.996 226.644 189.625 225.365 189.723 223.216C186.701 215.569 193.527 214.651 198.778 212.453C211.845 207.758 225.149 207.108 238.664 208.56C239.681 209.757 241.224 210.801 242.854 211.347C251.891 212.847 247.128 219.551 252.84 220.526C251.791 243.894 280.159 256.649 296.595 241.288C303.158 234.871 304.723 225.365 306.244 216.797C307.049 216.616 307.56 216.176 307.859 215.594C309.794 213.662 311.009 211.878 314.835 211.347C318.661 210.817 321.607 211.881 322.005 212.207C322.106 212.41 322.213 212.613 322.339 212.815C322.514 213.118 322.752 213.359 323.022 213.549C319.244 236.818 337.307 251.534 355.542 239.466C363.465 232.012 365.139 220.599 365.47 210.413C366.544 209.765 367.224 208.509 366.853 206.93C366.34 204.752 367.542 202.867 369.455 201.921C371.942 200.692 371.502 196.203 368.646 195.73Z" fill="black"/>
</svg>
