<?xml version="1.0" ?><svg data-name="Layer 1" id="Layer_1" viewBox="0 0 512 512" xmlns="http://www.w3.org/2000/svg"><path d="M208.71,242.68h94.58a5.48,5.48,0,0,0,5.48-5.48V200a5.48,5.48,0,0,0-5.48-5.48H208.71a5.48,5.48,0,0,0-5.48,5.48V237.2A5.48,5.48,0,0,0,208.71,242.68Zm5.47-37.25h83.64v26.3H214.18Z"/><path d="M303.29,316.16a5.48,5.48,0,0,0,5.48-5.48V273.44a5.48,5.48,0,0,0-5.48-5.48H208.71a5.48,5.48,0,0,0-5.48,5.48v37.24a5.48,5.48,0,0,0,5.48,5.48Zm-89.11-37.25h83.64v26.3H214.18Z"/><path d="M470.67,440.29H454.45V195.53a5.47,5.47,0,0,0-5.47-5.47H341.67V158.31a5.48,5.48,0,0,0-5.48-5.48H261.47V138.58a37.77,37.77,0,0,0,8.79,1.06c9.41,0,17.49-3.55,24.93-6.81,10.71-4.71,20-8.78,32.53-3.15a5.48,5.48,0,0,0,7.72-5V69.45a5.47,5.47,0,0,0-3.24-5c-17-7.62-30-1.92-41.42,3.11-10.72,4.71-20,8.78-32.55,3.14a5.48,5.48,0,0,0-7.71,5v77.12H175.81a5.48,5.48,0,0,0-5.48,5.48v31.75H63a5.47,5.47,0,0,0-5.47,5.47V440.29H41.33a5.48,5.48,0,1,0,0,10.95H470.67a5.48,5.48,0,1,0,0-10.95ZM261.47,83.36c13.33,3.19,24.07-1.53,33.71-5.77s18.34-8,29.31-4.4V117c-13.33-3.18-24.06,1.54-33.71,5.77s-18.34,8-29.31,4.41V83.36ZM341.67,383V326.12h45.44V383ZM443.5,315.17H398.06v-56.9H443.5Zm-56.39,0H341.67v-56.9h45.44Zm10.95,10.95H443.5V383H398.06Zm45.44-78.8H398.06V201H443.5ZM387.11,201v46.31H341.67V201ZM68.5,383V326.12h45.44V383Zm101.83-67.86H124.89v-56.9h45.44Zm-56.39,0H68.5v-56.9h45.44Zm11,10.95h45.44V383H124.89Zm45.44-78.8H124.89V201h45.44ZM113.94,201v46.31H68.5V201ZM68.5,394H170.33v46.31H68.5ZM181.28,195.53V163.78H330.72V440.29H300.13V351.73a5.47,5.47,0,0,0-5.47-5.48H217.34a5.47,5.47,0,0,0-5.47,5.48v88.56H181.28ZM289.18,373H222.82V357.2h66.36Zm-66.36,67.27V384h66.36v56.32Zm118.85,0V394H443.5v46.31Z"/></svg>